# xmcd CD database file
#
# Track frame offsets:
#	150
#	18602
#	34600
#	52857
#
# Disc length: 949 seconds
#
# Revision: 0
# Processed by: cddbd v1.5.1PL2 Copyright (c) Steve Scherf et al.
# Submitted via: CDex 1.51
#
DISCID=2603b304
DTITLE=YUI - TOKYO
DYEAR=2006
DGENRE=Pop
TTITLE0=TOKYO
TTITLE1=HELP
TTITLE2=LIFE-YUI Acoustic Version-
TTITLE3=TOKYO-instrumental-
EXTD=YEAR: 2006
EXTT0=
EXTT1=
EXTT2=
EXTT3=
PLAYORDER=
